# xmcd
# 
# Track frame offsets:
#     150
#     17915
#     36774
#     54328
# 
# Disc length: 1533
# 
# Revision: 0
# Processed by: cddbd v1.5.2PL0 Copyright (c) Steve Scherf et al.
# Submitted via: fre:ac v1.0.17
# 
DISCID=2905fb04
DTITLE=ストレイライト - THE IDOLM@STER SHINY COLORS FR@GMENT WING 06
DYEAR=2019
DGENRE=Game
TTITLE0=Wandering Dream Chaser
TTITLE1=Transcending The World
TTITLE2=Ambitious Eve（ストレイライト Ver.）
TTITLE3=スペシャルオーディオドラマ「イーティング・エクスペディション」
EXTD=
EXTT0=
EXTT1=
EXTT2=
EXTT3=
PLAYORDER=
